<svg xmlns="http://www.w3.org/2000/svg" xmlns:xlink="http://www.w3.org/1999/xlink" width="26px" height="39px">
    <path fill-rule="evenodd" fill="rgb(255, 255, 255)"
        d="M17.307,8.930 C16.688,8.302 15.969,7.856 15.151,7.592 C14.334,7.328 13.512,7.195 12.686,7.195 C12.471,7.195 12.285,7.274 12.128,7.431 C11.971,7.588 11.893,7.774 11.893,7.988 C11.893,8.203 11.971,8.389 12.128,8.546 C12.285,8.703 12.471,8.781 12.686,8.781 C13.545,8.781 14.420,8.988 15.312,9.401 C16.204,9.814 16.650,10.400 16.650,11.160 C16.650,11.375 16.729,11.560 16.886,11.717 C17.043,11.874 17.228,11.953 17.443,11.953 C17.658,11.953 17.844,11.874 18.001,11.717 C18.157,11.560 18.236,11.375 18.236,11.160 C18.236,10.301 17.926,9.558 17.307,8.930 ZM20.516,15.620 C20.350,15.802 20.098,16.074 19.760,16.437 C19.421,16.801 19.169,17.073 19.004,17.255 C16.890,19.782 15.725,22.244 15.511,24.639 L9.861,24.639 C9.646,22.244 8.482,19.782 6.368,17.255 C6.202,17.073 5.950,16.801 5.612,16.437 C5.273,16.074 5.021,15.802 4.856,15.620 C3.733,14.315 3.171,12.828 3.171,11.160 C3.171,9.970 3.456,8.864 4.026,7.840 C4.596,6.816 5.340,5.977 6.256,5.325 C7.173,4.672 8.189,4.160 9.304,3.788 C10.419,3.417 11.546,3.231 12.686,3.231 C13.826,3.231 14.953,3.417 16.068,3.788 C17.183,4.160 18.199,4.672 19.116,5.325 C20.032,5.977 20.776,6.816 21.346,7.840 C21.916,8.864 22.200,9.970 22.200,11.160 C22.200,12.828 21.639,14.315 20.516,15.620 L20.516,15.620 ZM24.269,6.588 C23.534,5.176 22.568,4.003 21.370,3.070 C20.173,2.137 18.818,1.402 17.307,0.865 C15.796,0.328 14.255,0.060 12.686,0.060 C11.116,0.060 9.576,0.328 8.065,0.865 C6.554,1.402 5.199,2.137 4.002,3.070 C2.804,4.003 1.837,5.176 1.103,6.588 C0.367,8.001 -0.000,9.524 -0.000,11.160 C-0.000,13.720 0.851,15.934 2.552,17.800 C3.295,18.610 3.911,19.328 4.398,19.956 C4.885,20.584 5.377,21.372 5.872,22.322 C6.368,23.272 6.648,24.160 6.715,24.985 C5.938,25.448 5.550,26.125 5.550,27.017 C5.550,27.629 5.756,28.157 6.170,28.603 C5.756,29.049 5.550,29.578 5.550,30.189 C5.550,31.048 5.922,31.717 6.665,32.196 C6.450,32.576 6.343,32.964 6.343,33.360 C6.343,34.120 6.603,34.707 7.123,35.119 C7.644,35.532 8.284,35.739 9.044,35.739 C9.374,36.465 9.869,37.043 10.530,37.473 C11.191,37.903 11.909,38.117 12.686,38.117 C13.462,38.117 14.181,37.903 14.842,37.473 C15.502,37.043 15.998,36.465 16.328,35.739 C17.088,35.739 17.728,35.532 18.248,35.119 C18.769,34.707 19.029,34.120 19.029,33.360 C19.029,32.964 18.921,32.576 18.707,32.196 C19.450,31.717 19.822,31.048 19.822,30.189 C19.822,29.578 19.615,29.049 19.202,28.603 C19.615,28.157 19.822,27.629 19.822,27.017 C19.822,26.125 19.434,25.448 18.657,24.985 C18.723,24.160 19.004,23.272 19.500,22.322 C19.995,21.372 20.487,20.584 20.974,19.956 C21.461,19.328 22.077,18.610 22.820,17.800 C24.521,15.934 25.372,13.720 25.372,11.160 C25.372,9.524 25.004,8.001 24.269,6.588 Z" />
</svg>