<svg xmlns="http://www.w3.org/2000/svg" xmlns:xlink="http://www.w3.org/1999/xlink" width="41px" height="41px">
    <path fill-rule="evenodd" fill="rgb(255, 255, 255)"
        d="M35.382,31.677 L31.740,35.295 C31.277,35.724 30.715,35.939 30.055,35.939 C29.377,35.939 28.816,35.716 28.370,35.270 L23.266,30.141 C22.803,29.679 22.572,29.117 22.572,28.456 C22.572,27.762 22.845,27.160 23.390,26.647 C23.439,26.697 23.592,26.854 23.848,27.118 C24.104,27.383 24.282,27.560 24.381,27.651 C24.480,27.742 24.637,27.866 24.852,28.023 C25.066,28.180 25.277,28.287 25.483,28.345 C25.690,28.403 25.917,28.431 26.165,28.431 C26.825,28.431 27.387,28.200 27.850,27.738 C28.312,27.275 28.543,26.714 28.543,26.053 C28.543,25.805 28.514,25.578 28.457,25.371 C28.399,25.165 28.291,24.955 28.135,24.740 C27.977,24.525 27.854,24.368 27.763,24.269 C27.672,24.170 27.494,23.992 27.230,23.736 C26.966,23.480 26.809,23.327 26.759,23.278 C27.255,22.749 27.850,22.485 28.543,22.485 C29.204,22.485 29.766,22.716 30.228,23.179 L35.382,28.332 C35.844,28.795 36.076,29.357 36.076,30.017 C36.076,30.661 35.844,31.215 35.382,31.677 L35.382,31.677 ZM17.840,14.358 C17.790,14.308 17.637,14.152 17.381,13.887 C17.125,13.623 16.948,13.445 16.849,13.354 C16.749,13.264 16.592,13.140 16.378,12.983 C16.163,12.826 15.952,12.719 15.746,12.661 C15.539,12.603 15.312,12.574 15.065,12.574 C14.404,12.574 13.842,12.806 13.380,13.268 C12.917,13.730 12.686,14.292 12.686,14.953 C12.686,15.200 12.715,15.428 12.773,15.634 C12.830,15.841 12.938,16.051 13.095,16.266 C13.252,16.481 13.375,16.637 13.466,16.737 C13.557,16.836 13.735,17.013 13.999,17.269 C14.263,17.526 14.420,17.678 14.470,17.728 C13.974,18.240 13.380,18.496 12.686,18.496 C12.008,18.496 11.447,18.273 11.001,17.827 L5.847,12.673 C5.385,12.211 5.154,11.649 5.154,10.988 C5.154,10.344 5.385,9.791 5.847,9.328 L9.490,5.711 C9.969,5.265 10.530,5.042 11.175,5.042 C11.835,5.042 12.397,5.273 12.859,5.735 L17.964,10.864 C18.426,11.327 18.657,11.889 18.657,12.549 C18.657,13.243 18.385,13.846 17.840,14.358 L17.840,14.358 ZM38.752,24.963 L33.598,19.809 C32.210,18.421 30.526,17.728 28.543,17.728 C26.528,17.728 24.810,18.455 23.390,19.908 L21.209,17.728 C22.663,16.307 23.390,14.581 23.390,12.549 C23.390,10.567 22.704,8.891 21.333,7.519 L16.229,2.391 C14.858,0.987 13.173,0.284 11.175,0.284 C9.192,0.284 7.516,0.970 6.145,2.341 L2.503,5.958 C1.098,7.330 0.396,9.006 0.396,10.988 C0.396,12.970 1.090,14.655 2.478,16.043 L7.631,21.196 C9.019,22.584 10.704,23.278 12.686,23.278 C14.701,23.278 16.419,22.551 17.840,21.097 L20.020,23.278 C18.566,24.699 17.840,26.424 17.840,28.456 C17.840,30.438 18.525,32.115 19.896,33.486 L25.000,38.615 C26.371,40.019 28.056,40.721 30.055,40.721 C32.037,40.721 33.713,40.035 35.085,38.664 L38.727,35.047 C40.131,33.676 40.833,31.999 40.833,30.017 C40.833,28.035 40.139,26.350 38.752,24.963 L38.752,24.963 Z" />
</svg>