<svg xmlns="http://www.w3.org/2000/svg" xmlns:xlink="http://www.w3.org/1999/xlink" width="38px" height="35px">
    <path fill-rule="evenodd" fill="rgb(255, 255, 255)"
        d="M12.500,22.173 C11.120,22.173 9.941,21.685 8.965,20.708 C7.988,19.732 7.500,18.553 7.500,17.173 C7.500,15.793 7.988,14.615 8.965,13.638 C9.941,12.661 11.120,12.173 12.500,12.173 C13.880,12.173 15.059,12.661 16.035,13.638 C17.012,14.615 17.500,15.793 17.500,17.173 C17.500,18.553 17.012,19.732 16.035,20.708 C15.059,21.685 13.880,22.173 12.500,22.173 ZM31.768,28.941 C31.279,29.429 30.690,29.673 30.000,29.673 C29.310,29.673 28.721,29.429 28.232,28.941 C27.744,28.452 27.500,27.863 27.500,27.173 C27.500,26.496 27.747,25.910 28.242,25.415 C28.737,24.921 29.323,24.673 30.000,24.673 C30.677,24.673 31.263,24.921 31.758,25.415 C32.253,25.910 32.500,26.496 32.500,27.173 C32.500,27.863 32.256,28.452 31.768,28.941 ZM31.768,8.941 C31.279,9.429 30.690,9.673 30.000,9.673 C29.310,9.673 28.721,9.429 28.232,8.941 C27.744,8.452 27.500,7.863 27.500,7.173 C27.500,6.496 27.747,5.910 28.242,5.415 C28.737,4.921 29.323,4.673 30.000,4.673 C30.677,4.673 31.263,4.921 31.758,5.415 C32.253,5.910 32.500,6.496 32.500,7.173 C32.500,7.863 32.256,8.452 31.768,8.941 ZM24.863,15.015 C24.772,14.904 24.661,14.836 24.531,14.810 L21.563,14.361 C21.419,13.918 21.198,13.384 20.898,12.759 C21.094,12.473 21.387,12.082 21.777,11.587 C22.168,11.092 22.441,10.741 22.598,10.532 C22.689,10.389 22.734,10.266 22.734,10.161 C22.734,9.810 21.797,8.768 19.922,7.036 C19.792,6.932 19.655,6.880 19.512,6.880 C19.355,6.880 19.225,6.926 19.121,7.017 L16.816,8.755 C16.282,8.482 15.794,8.280 15.352,8.150 L14.902,5.161 C14.889,5.031 14.824,4.917 14.707,4.820 C14.590,4.722 14.460,4.673 14.316,4.673 L10.684,4.673 C10.384,4.673 10.189,4.829 10.098,5.142 C9.941,5.741 9.792,6.743 9.648,8.150 C9.088,8.332 8.587,8.540 8.145,8.775 L5.898,7.017 C5.768,6.926 5.631,6.880 5.488,6.880 C5.241,6.880 4.727,7.264 3.945,8.032 C3.164,8.801 2.630,9.380 2.344,9.771 C2.253,9.875 2.207,10.005 2.207,10.161 C2.207,10.279 2.253,10.409 2.344,10.552 C3.073,11.425 3.659,12.173 4.102,12.798 C3.828,13.332 3.620,13.827 3.477,14.282 L0.449,14.751 C0.332,14.764 0.228,14.833 0.137,14.956 C0.045,15.080 -0.000,15.207 -0.000,15.337 L-0.000,18.950 C-0.000,19.094 0.045,19.221 0.137,19.331 C0.228,19.442 0.338,19.504 0.469,19.517 L3.438,19.986 C3.594,20.481 3.821,21.014 4.121,21.587 C3.913,21.874 3.607,22.271 3.203,22.779 C2.799,23.286 2.532,23.632 2.402,23.814 C2.311,23.944 2.266,24.068 2.266,24.185 C2.266,24.536 3.203,25.578 5.078,27.310 C5.208,27.414 5.345,27.466 5.488,27.466 C5.657,27.466 5.788,27.421 5.879,27.329 L8.184,25.591 C8.717,25.865 9.206,26.067 9.648,26.197 L10.098,29.185 C10.110,29.315 10.176,29.429 10.293,29.527 C10.410,29.624 10.540,29.673 10.684,29.673 L14.316,29.673 C14.616,29.673 14.811,29.517 14.902,29.204 C15.059,28.592 15.208,27.583 15.352,26.177 C15.872,26.021 16.374,25.819 16.855,25.572 L19.102,27.329 C19.232,27.421 19.368,27.466 19.512,27.466 C19.759,27.466 20.270,27.079 21.045,26.304 C21.819,25.529 22.357,24.947 22.656,24.556 C22.747,24.465 22.793,24.341 22.793,24.185 C22.793,24.068 22.747,23.938 22.656,23.794 C21.927,22.922 21.341,22.173 20.898,21.548 C21.172,21.014 21.380,20.520 21.523,20.064 L24.551,19.595 C24.668,19.582 24.772,19.514 24.863,19.390 C24.954,19.266 25.000,19.139 25.000,19.009 L25.000,15.396 C25.000,15.253 24.954,15.126 24.863,15.015 ZM34.590,25.200 C34.420,24.823 34.225,24.485 34.004,24.185 C34.668,22.714 35.000,21.815 35.000,21.490 C35.000,21.438 34.974,21.392 34.922,21.353 C33.359,20.442 32.552,19.986 32.500,19.986 L32.383,20.025 C31.849,20.559 31.250,21.288 30.586,22.212 C30.325,22.186 30.130,22.173 30.000,22.173 C29.870,22.173 29.674,22.186 29.414,22.212 C29.232,21.939 28.893,21.499 28.398,20.894 C27.903,20.288 27.604,19.986 27.500,19.986 C27.474,19.986 27.278,20.090 26.914,20.298 C26.549,20.507 26.165,20.728 25.762,20.962 C25.358,21.197 25.130,21.327 25.078,21.353 C25.026,21.392 25.000,21.438 25.000,21.490 C25.000,21.815 25.332,22.714 25.996,24.185 C25.775,24.485 25.579,24.823 25.410,25.200 C23.470,25.396 22.500,25.598 22.500,25.806 L22.500,28.540 C22.500,28.749 23.470,28.950 25.410,29.146 C25.566,29.497 25.762,29.836 25.996,30.161 C25.332,31.633 25.000,32.531 25.000,32.857 C25.000,32.909 25.026,32.954 25.078,32.993 C26.667,33.918 27.474,34.380 27.500,34.380 C27.604,34.380 27.903,34.074 28.398,33.462 C28.893,32.850 29.232,32.407 29.414,32.134 C29.674,32.160 29.870,32.173 30.000,32.173 C30.130,32.173 30.325,32.160 30.586,32.134 C30.768,32.407 31.107,32.850 31.602,33.462 C32.096,34.074 32.396,34.380 32.500,34.380 C32.526,34.380 33.333,33.918 34.922,32.993 C34.974,32.954 35.000,32.909 35.000,32.857 C35.000,32.531 34.668,31.633 34.004,30.161 C34.238,29.836 34.434,29.497 34.590,29.146 C36.530,28.950 37.500,28.749 37.500,28.540 L37.500,25.806 C37.500,25.598 36.530,25.396 34.590,25.200 L34.590,25.200 ZM34.590,5.200 C34.420,4.823 34.225,4.485 34.004,4.185 C34.668,2.714 35.000,1.815 35.000,1.490 C35.000,1.438 34.974,1.392 34.922,1.353 C33.359,0.442 32.552,-0.014 32.500,-0.014 L32.383,0.025 C31.849,0.559 31.250,1.288 30.586,2.212 C30.325,2.186 30.130,2.173 30.000,2.173 C29.870,2.173 29.674,2.186 29.414,2.212 C29.232,1.939 28.893,1.499 28.398,0.894 C27.903,0.288 27.604,-0.014 27.500,-0.014 C27.474,-0.014 27.278,0.090 26.914,0.298 C26.549,0.507 26.165,0.728 25.762,0.962 C25.358,1.197 25.130,1.327 25.078,1.353 C25.026,1.392 25.000,1.438 25.000,1.490 C25.000,1.815 25.332,2.714 25.996,4.185 C25.775,4.485 25.579,4.823 25.410,5.200 C23.470,5.396 22.500,5.598 22.500,5.806 L22.500,8.540 C22.500,8.749 23.470,8.950 25.410,9.146 C25.566,9.497 25.762,9.836 25.996,10.161 C25.332,11.633 25.000,12.531 25.000,12.857 C25.000,12.909 25.026,12.954 25.078,12.993 C26.667,13.918 27.474,14.380 27.500,14.380 C27.604,14.380 27.903,14.074 28.398,13.462 C28.893,12.850 29.232,12.407 29.414,12.134 C29.674,12.160 29.870,12.173 30.000,12.173 C30.130,12.173 30.325,12.160 30.586,12.134 C30.768,12.407 31.107,12.850 31.602,13.462 C32.096,14.074 32.396,14.380 32.500,14.380 C32.526,14.380 33.333,13.918 34.922,12.993 C34.974,12.954 35.000,12.909 35.000,12.857 C35.000,12.531 34.668,11.633 34.004,10.161 C34.238,9.836 34.434,9.497 34.590,9.146 C36.530,8.950 37.500,8.749 37.500,8.540 L37.500,5.806 C37.500,5.598 36.530,5.396 34.590,5.200 L34.590,5.200 Z" />
</svg>