<svg xmlns="http://www.w3.org/2000/svg" xmlns:xlink="http://www.w3.org/1999/xlink" width="51px" height="46px">
    <path fill-rule="evenodd" fill="rgb(255, 255, 255)"
        d="M50.744,0.888 L41.229,0.888 L41.229,4.060 L9.514,4.060 L9.514,0.888 L-0.000,0.888 L-0.000,10.403 L3.171,10.403 L3.171,35.774 L-0.000,35.774 L-0.000,45.289 L9.514,45.289 L9.514,42.117 L41.229,42.117 L41.229,45.289 L50.744,45.289 L50.744,35.774 L47.572,35.774 L47.572,10.403 L50.744,10.403 L50.744,0.888 ZM47.572,4.060 L47.572,7.231 L44.401,7.231 L44.401,4.060 L47.572,4.060 ZM6.343,4.060 L6.343,7.231 L3.171,7.231 L3.171,4.060 L6.343,4.060 ZM3.171,42.117 L3.171,38.946 L6.343,38.946 L6.343,42.117 L3.171,42.117 ZM9.514,38.946 L9.514,35.774 L6.343,35.774 L6.343,10.403 L9.514,10.403 L9.514,7.231 L41.229,7.231 L41.229,10.403 L44.401,10.403 L44.401,35.774 L41.229,35.774 L41.229,38.946 L9.514,38.946 ZM44.401,42.117 L44.401,38.946 L47.572,38.946 L47.572,42.117 L44.401,42.117 ZM31.715,10.403 L9.514,10.403 L9.514,29.431 L19.029,29.431 L19.029,35.774 L41.229,35.774 L41.229,16.745 L31.715,16.745 L31.715,10.403 ZM12.686,13.574 L28.543,13.574 L28.543,26.260 L12.686,26.260 L12.686,13.574 ZM22.200,32.603 L22.200,29.431 L31.715,29.431 L31.715,19.917 L38.058,19.917 L38.058,32.603 L22.200,32.603 Z" />
</svg>