<svg xmlns="http://www.w3.org/2000/svg" xmlns:xlink="http://www.w3.org/1999/xlink" width="20px" height="31px">
    <path fill-rule="evenodd" fill="rgb(255, 255, 255)"
        d="M10.000,15.173 C8.620,15.173 7.441,14.685 6.465,13.708 C5.488,12.732 5.000,11.553 5.000,10.173 C5.000,8.793 5.488,7.615 6.465,6.638 C7.441,5.661 8.620,5.173 10.000,5.173 C11.380,5.173 12.559,5.661 13.535,6.638 C14.512,7.615 15.000,8.793 15.000,10.173 C15.000,11.553 14.512,12.732 13.535,13.708 C12.559,14.685 11.380,15.173 10.000,15.173 ZM17.070,3.103 C15.117,1.150 12.760,0.173 10.000,0.173 C7.239,0.173 4.883,1.150 2.930,3.103 C0.977,5.056 -0.000,7.413 -0.000,10.173 C-0.000,11.592 0.215,12.758 0.645,13.669 L7.773,28.786 C7.969,29.216 8.271,29.555 8.682,29.802 C9.092,30.049 9.531,30.173 10.000,30.173 C10.469,30.173 10.908,30.049 11.318,29.802 C11.729,29.555 12.038,29.216 12.246,28.786 L19.355,13.669 C19.785,12.758 20.000,11.592 20.000,10.173 C20.000,7.413 19.023,5.056 17.070,3.103 Z" />
</svg>