<svg xmlns="http://www.w3.org/2000/svg" xmlns:xlink="http://www.w3.org/1999/xlink" width="20px" height="32px">
    <path fill-rule="evenodd" fill="rgb(255, 255, 255)"
        d="M9.514,30.757 C8.969,30.757 8.502,30.563 8.115,30.174 C7.726,29.786 7.532,29.320 7.532,28.774 C7.532,28.229 7.726,27.763 8.115,27.375 C8.502,26.987 8.969,26.792 9.514,26.792 C10.060,26.792 10.526,26.987 10.914,27.375 C11.302,27.763 11.497,28.229 11.497,28.774 C11.497,29.320 11.302,29.786 10.914,30.174 C10.526,30.563 10.060,30.757 9.514,30.757 ZM16.415,25.368 C16.258,25.525 16.072,25.603 15.857,25.603 L3.171,25.603 C2.957,25.603 2.771,25.525 2.614,25.368 C2.457,25.211 2.379,25.025 2.379,24.810 L2.379,7.367 C2.379,7.152 2.457,6.967 2.614,6.809 C2.771,6.653 2.957,6.574 3.171,6.574 L15.857,6.574 C16.072,6.574 16.258,6.653 16.415,6.809 C16.572,6.967 16.650,7.152 16.650,7.367 L16.650,24.810 C16.650,25.025 16.572,25.211 16.415,25.368 ZM11.497,4.195 L7.532,4.195 C7.268,4.195 7.136,4.063 7.136,3.799 C7.136,3.535 7.268,3.403 7.532,3.403 L11.497,3.403 C11.761,3.403 11.893,3.535 11.893,3.799 C11.893,4.063 11.761,4.195 11.497,4.195 L11.497,4.195 ZM18.087,1.173 C17.459,0.545 16.716,0.231 15.857,0.231 L3.171,0.231 C2.312,0.231 1.569,0.545 0.942,1.173 C0.314,1.800 0.000,2.544 0.000,3.403 L0.000,28.774 C0.000,29.634 0.314,30.377 0.942,31.004 C1.569,31.632 2.312,31.946 3.171,31.946 L15.857,31.946 C16.716,31.946 17.459,31.632 18.087,31.004 C18.715,30.377 19.029,29.634 19.029,28.774 L19.029,3.403 C19.029,2.544 18.715,1.800 18.087,1.173 Z" />
</svg>