<svg xmlns="http://www.w3.org/2000/svg" xmlns:xlink="http://www.w3.org/1999/xlink" width="45px" height="46px">
    <path fill-rule="evenodd" fill="rgb(255, 255, 255)"
        d="M41.254,11.195 C40.378,11.195 39.627,11.501 38.999,12.112 L29.064,22.023 L23.266,16.225 L33.177,6.289 C33.788,5.679 34.094,4.931 34.094,4.047 C34.094,3.164 33.788,2.416 33.177,1.805 C32.565,1.194 31.822,0.888 30.947,0.888 C30.071,0.888 29.320,1.194 28.692,1.805 L18.781,11.740 L15.065,8.024 L11.100,11.988 C8.408,14.681 6.867,17.898 6.479,21.639 C6.091,25.380 6.921,28.779 8.969,31.835 L-0.000,40.804 L-0.000,45.289 L4.485,45.289 L13.454,36.320 C16.510,38.368 19.909,39.198 23.650,38.810 C27.391,38.422 30.608,36.881 33.301,34.189 L37.265,30.224 L33.548,26.508 L43.484,16.597 C44.095,15.969 44.401,15.222 44.401,14.354 C44.401,13.487 44.095,12.740 43.484,12.112 C42.873,11.501 42.130,11.195 41.254,11.195 Z" />
</svg>