<svg xmlns="http://www.w3.org/2000/svg" xmlns:xlink="http://www.w3.org/1999/xlink" width="42px" height="41px">
    <path fill-rule="evenodd" fill="rgb(255, 255, 255)"
        d="M33.301,10.367 C32.640,10.367 32.078,10.136 31.616,9.673 C31.153,9.211 30.922,8.649 30.922,7.988 C30.922,7.328 31.153,6.766 31.616,6.303 C32.078,5.841 32.640,5.610 33.301,5.610 C33.961,5.610 34.523,5.841 34.986,6.303 C35.448,6.766 35.679,7.328 35.679,7.988 C35.679,8.649 35.448,9.211 34.986,9.673 C34.523,10.136 33.961,10.367 33.301,10.367 ZM40.982,0.295 C40.816,0.138 40.618,0.060 40.387,0.060 C36.076,0.060 32.516,0.646 29.708,1.819 C26.900,2.992 23.943,5.123 20.838,8.211 C19.516,9.549 18.063,11.160 16.477,13.043 L7.086,13.538 C6.822,13.572 6.607,13.704 6.442,13.935 L0.892,23.449 C0.694,23.780 0.735,24.102 1.016,24.416 L2.602,26.001 C2.750,26.150 2.940,26.224 3.171,26.224 C3.271,26.224 3.345,26.216 3.394,26.200 L10.233,24.093 L17.195,31.056 L15.089,37.894 C15.007,38.192 15.073,38.456 15.288,38.687 L16.873,40.273 C17.055,40.422 17.245,40.496 17.443,40.496 C17.592,40.496 17.724,40.463 17.840,40.397 L27.354,34.847 C27.585,34.682 27.717,34.467 27.751,34.203 L28.246,24.812 C30.129,23.226 31.740,21.773 33.078,20.451 C36.018,17.495 38.111,14.517 39.359,11.519 C40.606,8.521 41.229,4.965 41.229,0.852 C41.229,0.638 41.147,0.452 40.982,0.295 Z" />
</svg>